<svg width="145" height="34" viewBox="0 0 145 34" fill="none" xmlns="http://www.w3.org/2000/svg">
<path d="M51.1965 0.28299H53.97V14.4024H51.2841V5.24265L47.4304 11.796H47.1092L43.2555 5.25755V14.4024H40.5549V0.28299H43.3285L47.2552 6.95545L51.1965 0.28299Z" fill="white"/>
<path d="M64.7867 0.28299H67.8376L63.1518 8.89165V14.4024H60.4659V8.89165L55.7947 0.28299H58.8456L61.8234 6.16607L64.7867 0.28299Z" fill="white"/>
<path d="M75.0779 7.13417L80.333 14.4024H77.2238L72.3336 7.78951V14.4024H69.6331V0.28299H72.3336V6.52353L77.0194 0.28299H80.1287L75.0779 7.13417Z" fill="white"/>
<path d="M92.5074 12.5704C91.1206 13.9854 89.4419 14.6854 87.4567 14.6854C85.4714 14.6854 83.7927 13.9705 82.4059 12.5704C81.0337 11.1406 80.3477 9.39804 80.3477 7.34268C80.3477 5.28733 81.0337 3.55964 82.4059 2.14472C83.7927 0.714906 85.4714 0 87.4567 0C89.4419 0 91.1206 0.714906 92.5074 2.14472C93.8942 3.55964 94.5802 5.28733 94.5802 7.34268C94.5802 9.39804 93.8942 11.1406 92.5074 12.5704ZM84.3036 10.664C85.1356 11.5279 86.1867 11.9598 87.4567 11.9598C88.712 11.9598 89.7777 11.5279 90.6097 10.664C91.4564 9.78528 91.8797 8.68313 91.8797 7.34268C91.8797 6.00223 91.4564 4.88519 90.6097 4.02135C89.7631 3.14261 88.712 2.71069 87.4567 2.71069C86.2013 2.71069 85.1502 3.14261 84.3036 4.02135C83.4569 4.90009 83.0336 6.00223 83.0336 7.34268C83.0336 8.69803 83.4569 9.80017 84.3036 10.664Z" fill="white"/>
<path d="M99.6601 0.28299V11.7364H104.886V14.4024H96.9596V0.28299H99.6601Z" fill="white"/>
<path d="M119.031 14.4024H116.097L115.28 11.8555H109.82L109.003 14.4024H106.083L110.871 0.28299H114.214L119.031 14.4024ZM112.55 3.48517L110.681 9.24911H114.433L112.55 3.48517Z" fill="white"/>
<path d="M51.1965 19.1833H53.97V33.3027H51.2841V24.143L47.4304 30.6963H47.1092L43.2555 24.1579V33.3027H40.5549V19.1833H43.3285L47.2552 25.8558L51.1965 19.1833Z" fill="white"/>
<path d="M68.5237 31.4559C67.137 32.8708 65.4583 33.5708 63.473 33.5708C61.4877 33.5708 59.809 32.8559 58.4223 31.4559C57.0501 30.0261 56.364 28.2835 56.364 26.2281C56.364 24.1728 57.0501 22.4451 58.4223 21.0302C59.809 19.6004 61.4877 18.8855 63.473 18.8855C65.4583 18.8855 67.137 19.6004 68.5237 21.0302C69.9105 22.4451 70.5966 24.1728 70.5966 26.2281C70.5966 28.2835 69.9105 30.041 68.5237 31.4559ZM60.3345 29.5644C61.1666 30.4282 62.2176 30.8601 63.4876 30.8601C64.7576 30.8601 65.8086 30.4282 66.6407 29.5644C67.4873 28.6856 67.9106 27.5835 67.9106 26.243C67.9106 24.9026 67.4873 23.7855 66.6407 22.9217C65.794 22.043 64.743 21.611 63.4876 21.611C62.2322 21.611 61.1812 22.043 60.3345 22.9217C59.4879 23.8004 59.0646 24.9026 59.0646 26.243C59.0646 27.5835 59.4879 28.6856 60.3345 29.5644Z" fill="white"/>
<path d="M78.4207 26.0345L83.6758 33.3027H80.5665L75.6764 26.6898V33.3027H72.9758V19.1833H75.6764V25.4239L80.3622 19.1833H83.4714L78.4207 26.0345Z" fill="white"/>
<path d="M85.5006 33.2878V19.1684H88.2012V33.2878H85.5006Z" fill="white"/>
<path d="M90.5222 33.2878V19.1684H93.2228V33.2878H90.5222Z" fill="white"/>
<path d="M98.2442 27.4643V30.6367H104.01V33.3027H95.5437V19.1833H103.923V21.8493H98.2588V24.8579H103.441V27.4792H98.2442V27.4643Z" fill="white"/>
<path d="M114.331 27.792V19.1833H117.031V33.3027H114.973L109.105 24.6643V33.3027H106.404V19.1833H108.462L114.331 27.792Z" fill="white"/>
<path d="M125.498 26.0345L130.753 33.3027H127.644L122.754 26.6898V33.3027H120.053V19.1833H122.754V25.4239L127.439 19.1833H130.549L125.498 26.0345Z" fill="white"/>
<path d="M142.927 31.4559C141.54 32.8708 139.862 33.5708 137.876 33.5708C135.891 33.5708 134.212 32.8559 132.826 31.4559C131.453 30.0261 130.767 28.2835 130.767 26.2281C130.767 24.1728 131.453 22.4451 132.826 21.0302C134.212 19.6004 135.891 18.8855 137.876 18.8855C139.862 18.8855 141.54 19.6004 142.927 21.0302C144.314 22.4451 145 24.1728 145 26.2281C145 28.2835 144.299 30.041 142.927 31.4559ZM134.723 29.5644C135.555 30.4282 136.606 30.8601 137.876 30.8601C139.132 30.8601 140.197 30.4282 141.029 29.5644C141.876 28.6856 142.299 27.5835 142.299 26.243C142.299 24.9026 141.876 23.7855 141.029 22.9217C140.183 22.043 139.132 21.611 137.876 21.611C136.621 21.611 135.57 22.043 134.723 22.9217C133.877 23.8004 133.453 24.9026 133.453 26.243C133.453 27.5835 133.877 28.6856 134.723 29.5644Z" fill="white"/>
<path d="M0 0V20.1024L13.7501 33L28 20.1113V0H0ZM24.4572 2.04582L20.7479 5.59488H7.05042L3.4726 2.04582H24.4572ZM12.7504 29.2819L2.93768 20.0668L6.4015 18.8838L12.7504 24.7544V29.2819ZM12.7504 21.997L7.63796 17.2739V11.341L5.62982 9.34852V16.9892L1.99937 18.2256V3.45121L5.62982 7.06253L7.63796 9.06388L12.7504 14.1429V21.997ZM14.7673 29.3353V26.4178V24.7811V22.086V18.8749V14.1429L19.0554 10.0423V9.06388H17.1438L13.7764 12.2927L9.11995 7.66739H18.617H20.362V8.80593V17.265L16.3545 20.734V23.4291L21.5897 18.8927L25.0448 20.0668L14.7673 29.3353ZM25.9919 18.2256L22.3614 16.9892V6.86685L25.9919 3.38895V18.2256Z" fill="#E2C4A2"/>
</svg>
