<svg width="263" height="87" viewBox="0 0 263 87" fill="none" xmlns="http://www.w3.org/2000/svg">
<path d="M113.439 0.444824H117.861V22.6337H113.579V8.23901L107.434 18.5376H106.922L100.778 8.26242V22.6337H96.4722V0.444824H100.894L107.155 10.9307L113.439 0.444824Z" fill="white"/>
<path d="M135.107 0.444824H139.972L132.501 13.9735V22.6337H128.218V13.9735L120.771 0.444824H125.635L130.383 9.69018L135.107 0.444824Z" fill="white"/>
<path d="M151.516 11.2116L159.895 22.6337H154.937L147.14 12.2414V22.6337H142.835V0.444824H147.14V10.2519L154.611 0.444824H159.569L151.516 11.2116Z" fill="white"/>
<path d="M179.306 19.7546C177.094 21.9782 174.418 23.0783 171.253 23.0783C168.087 23.0783 165.411 21.9548 163.2 19.7546C161.012 17.5077 159.918 14.7692 159.918 11.5391C159.918 8.30912 161.012 5.59403 163.2 3.37046C165.411 1.12349 168.087 0 171.253 0C174.418 0 177.094 1.12349 179.306 3.37046C181.517 5.59403 182.61 8.30912 182.61 11.5391C182.61 14.7692 181.517 17.5077 179.306 19.7546ZM166.225 16.7587C167.552 18.1162 169.228 18.795 171.253 18.795C173.254 18.795 174.953 18.1162 176.28 16.7587C177.63 15.3777 178.305 13.6457 178.305 11.5391C178.305 9.43261 177.63 7.67716 176.28 6.31961C174.93 4.93866 173.254 4.25989 171.253 4.25989C169.251 4.25989 167.575 4.93866 166.225 6.31961C164.875 7.70057 164.2 9.43261 164.2 11.5391C164.2 13.6691 164.875 15.4011 166.225 16.7587Z" fill="white"/>
<path d="M190.71 0.444824V18.444H199.042V22.6337H186.404V0.444824H190.71Z" fill="white"/>
<path d="M221.595 22.6337H216.917L215.613 18.6313H206.909L205.605 22.6337H200.951L208.585 0.444824H213.914L221.595 22.6337ZM211.261 5.47711L208.282 14.5352H214.264L211.261 5.47711Z" fill="white"/>
<path d="M113.439 30.147H117.861V52.3358H113.579V37.9412L107.434 48.2398H106.922L100.778 37.9646V52.3358H96.4722V30.147H100.894L107.155 40.6329L113.439 30.147Z" fill="white"/>
<path d="M141.066 49.4334C138.855 51.6569 136.178 52.757 133.013 52.757C129.848 52.757 127.171 51.6335 124.96 49.4334C122.772 47.1864 121.678 44.4479 121.678 41.2179C121.678 37.9878 122.772 35.2727 124.96 33.0492C127.171 30.8022 129.848 29.6787 133.013 29.6787C136.178 29.6787 138.855 30.8022 141.066 33.0492C143.277 35.2727 144.371 37.9878 144.371 41.2179C144.371 44.4479 143.277 47.2098 141.066 49.4334ZM128.009 46.4608C129.335 47.8183 131.011 48.4971 133.036 48.4971C135.061 48.4971 136.737 47.8183 138.063 46.4608C139.413 45.0798 140.088 43.3478 140.088 41.2413C140.088 39.1347 139.413 37.3793 138.063 36.0217C136.713 34.6408 135.038 33.962 133.036 33.962C131.035 33.962 129.359 34.6408 128.009 36.0217C126.659 37.4027 125.984 39.1347 125.984 41.2413C125.984 43.3478 126.659 45.0798 128.009 46.4608Z" fill="white"/>
<path d="M156.846 40.9137L165.225 52.3358H160.267L152.47 41.9436V52.3358H148.164V30.147H152.47V39.9541L159.941 30.147H164.899L156.846 40.9137Z" fill="white"/>
<path d="M168.134 52.3124V30.1235H172.44V52.3124H168.134Z" fill="white"/>
<path d="M176.14 52.3124V30.1235H180.446V52.3124H176.14Z" fill="white"/>
<path d="M188.452 43.1607V48.1462H197.646V52.3358H184.147V30.147H197.506V34.3366H188.476V39.0647H196.738V43.1841H188.452V43.1607Z" fill="white"/>
<path d="M214.101 43.6756V30.147H218.406V52.3358H215.125L205.768 38.7604V52.3358H201.463V30.147H204.744L214.101 43.6756Z" fill="white"/>
<path d="M231.906 40.9137L240.284 52.3358H235.327L227.53 41.9436V52.3358H223.224V30.147H227.53V39.9541L235.001 30.147H239.958L231.906 40.9137Z" fill="white"/>
<path d="M259.695 49.4334C257.484 51.6569 254.807 52.757 251.642 52.757C248.477 52.757 245.8 51.6335 243.589 49.4334C241.401 47.1864 240.307 44.4479 240.307 41.2179C240.307 37.9878 241.401 35.2727 243.589 33.0492C245.8 30.8022 248.477 29.6787 251.642 29.6787C254.807 29.6787 257.484 30.8022 259.695 33.0492C261.906 35.2727 263 37.9878 263 41.2179C263 44.4479 261.883 47.2098 259.695 49.4334ZM246.615 46.4608C247.941 47.8183 249.617 48.4971 251.642 48.4971C253.644 48.4971 255.343 47.8183 256.669 46.4608C258.019 45.0798 258.694 43.3478 258.694 41.2413C258.694 39.1347 258.019 37.3793 256.669 36.0217C255.319 34.6408 253.644 33.962 251.642 33.962C249.641 33.962 247.965 34.6408 246.615 36.0217C245.265 37.4027 244.59 39.1347 244.59 41.2413C244.59 43.3478 245.265 45.0798 246.615 46.4608Z" fill="white"/>
<path d="M0 0.164062V53.0616L36.4942 87.0002L74.315 53.085V0.164062H0ZM64.9121 5.54744L55.0671 14.8864H18.7126L9.21664 5.54744H64.9121ZM33.8409 77.2165L7.7969 52.9679L16.9903 49.8549L33.8409 65.3029V77.2165ZM33.8409 58.047L20.2719 45.6185V30.0067L14.9421 24.7637V44.8695L5.30655 48.1229V9.24558L14.9421 18.7484L20.2719 24.0148L33.8409 37.3796V58.047ZM39.194 77.357V69.6798V65.3731V58.2811V49.8315V37.3796L50.5751 26.5894V24.0148H45.5013L36.564 32.5111L24.2053 20.34H49.4114H54.043V23.336V45.5951L43.4066 54.7234V61.8154L57.3014 49.8783L66.4715 52.9679L39.194 77.357ZM68.9851 48.1229L59.3496 44.8695V18.2335L68.9851 9.08174V48.1229Z" fill="#E2C4A2"/>
<path d="M97.9384 65.1152V71.8796H101.499V73.1435H96.4954V65.1152H97.9384Z" fill="white"/>
<path d="M118.117 73.1435H116.558L115.953 71.5285H112.229L111.624 73.1435H110.064L113.23 65.1152H114.952L118.117 73.1435ZM114.091 66.66L112.694 70.288H115.464L114.091 66.66Z" fill="white"/>
<path d="M130.127 73.1435H128.474L126.007 65.1152H127.52L129.359 71.388L131.337 65.1152H132.664L134.642 71.388L136.481 65.1152H137.993L135.526 73.1435H133.874L132.035 67.292L130.127 73.1435Z" fill="white"/>
<path d="M165.667 72.0905C164.782 72.8863 163.712 73.2842 162.455 73.2842C161.198 73.2842 160.104 72.8863 159.22 72.0905C158.335 71.2713 157.916 70.2883 157.916 69.1414C157.916 67.9711 158.359 66.988 159.22 66.1922C160.104 65.373 161.175 64.9751 162.455 64.9751C163.712 64.9751 164.782 65.373 165.667 66.1922C166.551 66.988 166.993 67.9711 166.993 69.1414C166.993 70.2883 166.551 71.2713 165.667 72.0905ZM160.244 71.2011C160.849 71.7394 161.594 72.0203 162.455 72.0203C163.339 72.0203 164.061 71.7394 164.666 71.2011C165.271 70.6627 165.574 69.9606 165.574 69.1414C165.574 68.3222 165.271 67.6434 164.666 67.0816C164.084 66.5433 163.339 66.2624 162.455 66.2624C161.57 66.2624 160.849 66.5433 160.244 67.0816C159.662 67.62 159.359 68.2987 159.359 69.1414C159.359 69.9606 159.639 70.6393 160.244 71.2011Z" fill="white"/>
<path d="M181.493 65.1152V66.3792H177.816V68.6261H181.377V69.8901H177.816V73.1435H176.373V65.1152H181.493Z" fill="white"/>
<path d="M196.016 65.1152V66.3792H192.339V68.6261H195.9V69.8901H192.339V73.1435H190.896V65.1152H196.016Z" fill="white"/>
<path d="M205.419 73.1435V65.1152H206.862V73.1435H205.419Z" fill="white"/>
<path d="M220.804 73.2842C219.477 73.2842 218.406 72.8863 217.522 72.0905C216.661 71.2713 216.219 70.2883 216.219 69.118C216.219 67.9477 216.661 66.9646 217.522 66.1688C218.383 65.373 219.477 64.9751 220.804 64.9751C221.595 64.9751 222.316 65.1389 222.991 65.49C223.666 65.8411 224.202 66.3092 224.574 66.8944L223.317 67.5498C223.085 67.1519 222.735 66.8476 222.293 66.6135C221.851 66.3795 221.362 66.2624 220.804 66.2624C219.873 66.2624 219.128 66.5433 218.523 67.0816C217.941 67.62 217.662 68.2987 217.662 69.1414C217.662 69.984 217.941 70.6627 218.523 71.2011C219.105 71.7394 219.873 72.0203 220.804 72.0203C221.362 72.0203 221.851 71.9033 222.293 71.6692C222.735 71.4351 223.085 71.1075 223.317 70.7096L224.574 71.3649C224.225 71.9501 223.69 72.4182 223.015 72.7693C222.34 73.1204 221.618 73.2842 220.804 73.2842Z" fill="white"/>
<path d="M235.257 69.7262V71.8796H239.121V73.1435H233.814V65.1152H239.074V66.3792H235.257V68.4623H238.748V69.7028H235.257V69.7262Z" fill="white"/>
</svg>
