<svg width="57" height="66" viewBox="0 0 57 66" fill="none" xmlns="http://www.w3.org/2000/svg">
<path d="M0 0V40.15L27.9912 65.91L57 40.1678V0H0ZM49.788 4.08607L42.2368 11.1745H14.3526L7.06921 4.08607H49.788ZM25.9562 58.484L5.98027 40.079L13.0316 37.7162L25.9562 49.4414V58.484ZM25.9562 43.9341L15.5487 34.5006V22.651L11.4607 18.6715V33.9321L4.07015 36.4015V6.89301L11.4607 14.1058L15.5487 18.103L25.9562 28.2471V43.9341ZM30.062 58.5906V52.7635V49.4947V44.1117V37.6984V28.2471L38.7914 20.0573V18.103H34.8998L28.0448 24.5519L18.5656 15.3139H37.8988H41.4513V17.5878V34.4828L33.2931 41.4114V46.7943L43.9505 37.7339L50.984 40.079L30.062 58.5906ZM52.912 36.4015L45.5215 33.9321V13.715L52.912 6.76866V36.4015Z" fill="#E2C4A2"/>
</svg>
