<svg width="241" height="120" viewBox="0 0 241 120" fill="none" xmlns="http://www.w3.org/2000/svg">
<g clip-path="url(#clip0_2_46)">
<path d="M13.4902 85.5741H17.0164V103.122H13.6103V91.7365L8.71314 99.8823H8.31035L3.42731 91.7647V103.122H0V85.5741H3.52624L8.51528 93.8753L13.4902 85.5741Z" fill="white"/>
<path d="M30.7468 85.5741H34.6264L28.6692 96.2753V103.122H25.2631V96.2753L19.3271 85.5741H23.1997L26.9732 92.8941L30.7468 85.5741Z" fill="white"/>
<path d="M43.8201 94.0941L50.4981 103.122H46.5549L40.3433 94.8988V103.122H36.916V85.5741H40.3433V93.3247L46.3005 85.5741H50.2437L43.8201 94.0941Z" fill="white"/>
<path d="M65.9457 100.835C64.1932 102.586 62.052 103.468 59.5363 103.468C57.0206 103.468 54.8865 102.586 53.1269 100.835C51.3885 99.0494 50.5193 96.8823 50.5193 94.3341C50.5193 91.7788 51.3885 89.6188 53.1269 87.8682C54.8794 86.0965 57.0206 85.2141 59.5363 85.2141C62.052 85.2141 64.1861 86.1035 65.9457 87.8682C67.6982 89.6188 68.5816 91.7788 68.5816 94.3341C68.5816 96.8894 67.7124 99.0706 65.9457 100.835ZM55.5437 98.4847C56.6036 99.5576 57.9322 100.087 59.5434 100.087C61.1475 100.087 62.4831 99.5576 63.5431 98.4847C64.6172 97.3976 65.1543 96.0141 65.1543 94.3482C65.1543 92.6753 64.6101 91.2988 63.5431 90.2118C62.4689 89.1247 61.1334 88.5882 59.5434 88.5882C57.9534 88.5882 56.6178 89.1247 55.5437 90.2118C54.4695 91.2988 53.9325 92.6823 53.9325 94.3482C53.9325 96.0212 54.4625 97.3976 55.5437 98.4847Z" fill="white"/>
<path d="M75.0405 85.5741V99.8117H81.676V103.122H71.6132V85.5741H75.0405Z" fill="white"/>
<path d="M99.6393 103.122H95.9152L94.8694 99.967H87.937L86.8911 103.122H83.1882L89.2726 85.5741H93.5196L99.6393 103.122ZM91.4138 89.5553L89.0323 96.727H93.8023L91.4138 89.5553Z" fill="white"/>
<path d="M122.267 85.5741H125.793V103.122H122.387V91.7365L117.49 99.8823H117.087L112.197 91.7647V103.122H108.769V85.5741H112.296L117.285 93.8753L122.267 85.5741Z" fill="white"/>
<path d="M144.279 100.835C142.527 102.586 140.386 103.468 137.87 103.468C135.354 103.468 133.213 102.586 131.46 100.835C129.722 99.0494 128.853 96.8823 128.853 94.3341C128.853 91.7788 129.729 89.6188 131.46 87.8682C133.213 86.0965 135.354 85.2141 137.87 85.2141C140.386 85.2141 142.527 86.1035 144.279 87.8682C146.032 89.6188 146.915 91.7788 146.915 94.3341C146.915 96.8894 146.032 99.0706 144.279 100.835ZM133.87 98.4847C134.93 99.5576 136.259 100.087 137.87 100.087C139.474 100.087 140.81 99.5576 141.87 98.4847C142.944 97.3976 143.481 96.0141 143.481 94.3482C143.481 92.6753 142.937 91.2988 141.87 90.2118C140.795 89.1247 139.46 88.5882 137.87 88.5882C136.28 88.5882 134.944 89.1247 133.87 90.2118C132.796 91.2988 132.259 92.6823 132.259 94.3482C132.252 96.0212 132.796 97.3976 133.87 98.4847Z" fill="white"/>
<path d="M156.844 94.0941L163.529 103.122H159.585L153.374 94.8988V103.122H149.947V85.5741H153.374V93.3247L159.331 85.5741H163.274L156.844 94.0941Z" fill="white"/>
<path d="M165.839 103.122V85.5741H169.267V103.122H165.839Z" fill="white"/>
<path d="M172.023 103.122V85.5741H175.45V103.122H172.023Z" fill="white"/>
<path d="M181.633 95.88V99.8188H188.961V103.129H178.206V85.5812H188.841V88.8918H181.64V92.6259H188.219V95.8871H181.633V95.88Z" fill="white"/>
<path d="M202.056 96.2753V85.5741H205.483V103.122H202.876L195.42 92.3859V103.122H191.993V85.5741H194.601L202.056 96.2753Z" fill="white"/>
<path d="M216.231 94.0941L222.909 103.122H218.966L212.755 94.8988V103.122H209.327V85.5741H212.755V93.3247L218.712 85.5741H222.655L216.231 94.0941Z" fill="white"/>
<path d="M238.371 100.835C236.619 102.586 234.478 103.468 231.962 103.468C229.446 103.468 227.312 102.586 225.552 100.835C223.814 99.0494 222.945 96.8823 222.945 94.3341C222.945 91.7788 223.821 89.6188 225.552 87.8682C227.305 86.0965 229.446 85.2141 231.962 85.2141C234.478 85.2141 236.612 86.1035 238.371 87.8682C240.124 89.6188 241.007 91.7788 241.007 94.3341C241.007 96.8894 240.124 99.0706 238.371 100.835ZM227.962 98.4847C229.022 99.5576 230.351 100.087 231.962 100.087C233.566 100.087 234.902 99.5576 235.962 98.4847C237.036 97.3976 237.573 96.0141 237.573 94.3482C237.573 92.6753 237.029 91.2988 235.962 90.2118C234.887 89.1247 233.552 88.5882 231.962 88.5882C230.372 88.5882 229.036 89.1247 227.962 90.2118C226.888 91.2988 226.351 92.6823 226.351 94.3482C226.344 96.0212 226.888 97.3976 227.962 98.4847Z" fill="white"/>
<path d="M90.905 0V41.8518L119.97 68.6965L150.102 41.8659V0H90.905ZM142.604 4.27059L134.775 11.6612H105.809L98.2543 4.27059H142.604ZM117.864 60.9529L97.1166 41.7812L104.445 39.3106L117.871 51.5365V60.9529H117.864ZM117.864 45.7906L107.066 35.9576V23.6047L102.819 19.4541V35.3647L95.145 37.9482V7.19294L102.819 14.7035L107.066 18.8612L117.864 29.4282V45.7906ZM122.111 61.0729V54.9953V51.6V45.9953V39.3035V29.4494L131.178 20.9082V18.8682H127.136L120.012 25.5812L110.169 15.9459H130.238H133.934V18.3176V35.9153L125.461 43.1365V48.7412L136.52 39.2965L143.82 41.7459L122.111 61.0729ZM145.848 37.9482L138.174 35.3647V14.3012L145.848 7.06588V37.9482Z" fill="#E2C4A2"/>
<path d="M61.6492 113.167V118.821H64.6525V119.873H60.4408V113.167H61.6492Z" fill="white"/>
<path d="M78.6444 119.873H77.3371L76.8212 118.518H73.6836L73.1678 119.873H71.8534L74.5246 113.167H75.9803L78.6444 119.873ZM75.2524 114.459L74.0864 117.487H76.4255L75.2524 114.459Z" fill="white"/>
<path d="M88.7638 119.873H87.3646L85.2799 113.167H86.5519L88.0995 118.412L89.7743 113.167H90.8908L92.5515 118.412L94.0991 113.167H95.371L93.2864 119.873H91.8872L90.3325 114.974L88.7638 119.873Z" fill="white"/>
<path d="M118.691 118.991C117.956 119.661 117.051 120 115.984 120C114.917 120 114.013 119.661 113.271 118.991C112.536 118.313 112.168 117.487 112.168 116.52C112.168 115.546 112.536 114.727 113.271 114.056C114.013 113.379 114.917 113.04 115.984 113.04C117.051 113.04 117.956 113.379 118.691 114.056C119.433 114.727 119.807 115.546 119.807 116.52C119.807 117.494 119.433 118.32 118.691 118.991ZM114.119 118.249C114.635 118.701 115.25 118.927 115.984 118.927C116.719 118.927 117.341 118.701 117.836 118.249C118.338 117.791 118.592 117.212 118.592 116.527C118.592 115.835 118.338 115.264 117.836 114.812C117.334 114.353 116.719 114.12 115.984 114.12C115.25 114.12 114.628 114.353 114.119 114.812C113.617 115.264 113.37 115.835 113.37 116.527C113.377 117.205 113.624 117.776 114.119 118.249Z" fill="white"/>
<path d="M132.012 113.167V114.219H128.909V116.096H131.906V117.148H128.909V119.873H127.701V113.167H132.012Z" fill="white"/>
<path d="M144.251 113.167V114.219H141.142V116.096H144.145V117.148H141.142V119.873H139.933V113.167H144.251Z" fill="white"/>
<path d="M152.173 119.873V113.167H153.381V119.873H152.173Z" fill="white"/>
<path d="M165.133 120C164.023 120 163.105 119.668 162.377 119.005C161.649 118.327 161.281 117.501 161.281 116.52C161.281 115.539 161.649 114.713 162.377 114.049C163.098 113.379 164.016 113.04 165.133 113.04C165.797 113.04 166.412 113.181 166.977 113.471C167.542 113.76 167.988 114.148 168.306 114.642L167.253 115.2C167.055 114.868 166.772 114.607 166.391 114.416C166.016 114.219 165.599 114.12 165.14 114.12C164.362 114.12 163.719 114.346 163.225 114.798C162.744 115.242 162.497 115.821 162.497 116.52C162.497 117.226 162.737 117.798 163.225 118.242C163.726 118.694 164.362 118.92 165.14 118.92C165.599 118.92 166.023 118.821 166.405 118.631C166.786 118.433 167.069 118.165 167.26 117.833L168.313 118.376C168.009 118.864 167.571 119.259 166.998 119.555C166.426 119.859 165.811 120 165.133 120Z" fill="white"/>
<path d="M177.301 117.007V118.821H180.566V119.873H176.093V113.167H180.517V114.219H177.309V115.962H180.255V117.007H177.301Z" fill="white"/>
</g>
<defs>
<clipPath id="clip0_2_46">
<rect width="241" height="120" fill="white"/>
</clipPath>
</defs>
</svg>
